<?xml version="1.0" encoding="utf-8"?>

<!DOCTYPE svg PUBLIC "-//W3C//DTD SVG 1.1//EN" "http://www.w3.org/Graphics/SVG/1.1/DTD/svg11.dtd">
<svg version="1.1" id="Layer_1" xmlns="http://www.w3.org/2000/svg" xmlns:xlink="http://www.w3.org/1999/xlink" x="0px" y="0px"
	 viewBox="0 0 3243 2187" enable-background="new 0 0 3243 2187" xml:space="preserve">
<path fill="#030303" d="M591.08,73.64c4.91,7.99,9.15,16.36,13.84,24.48c-1.59,8.59-6.51,16.03-10.32,23.75
	c-17.96,32.41-38.04,63.57-57.96,94.78c-26.09,40.52-52.83,80.61-79.67,120.63c19.16,1.12,38.12-2.53,56.85-6.1
	c-0.09-0.28-0.26-0.83-0.34-1.11c-4.85-3.92-8.28-9.77-8.35-16.1c-0.57-11.53,6.28-21.91,14.23-29.65
	c9.19-9.55,20.79-16.55,33.04-21.43c1.86,15.43,1.71,31.4-2.81,46.39c-1.66,5.68-5.02,10.59-8.27,15.46
	c21.15-5.11,42.04-11.3,62.85-17.68c9.89-3.31,20.06-5.84,29.69-9.88c-1.26-0.31-2.51-0.6-3.76-0.87
	c-7.59-5.61-13.03-14.24-13.99-23.71c-1.44-12.45,3.99-24.57,10.97-34.57c14.9-20.79,37.29-34.79,60.41-44.85
	c1.41,12.87,2.5,25.9,1.24,38.84c-0.62,13.24-2.94,26.55-8.13,38.81c-1.95,4.62-4.92,8.69-7.3199,13.07
	c17.81-5.74,35.27-12.58,52.5099-19.87c12.45-5.37,24.83-10.99,36.7-17.59c-7.91-3.95-14.94-10.23-18.14-18.64
	c-5.41-13.66-1.56-28.97,4.86-41.58c7.37-15.38,19.32-27.9,31.88-39.18c5.4-4.57,11.1-8.76,16.92-12.77
	c6.42,20.91,11.45,42.67,10.37,64.69c-0.38,8.03-2.51,15.78-4.69,23.48c13.25-8.73,25.74-18.6,37.25-29.51
	c8.48-8.47,16.87-17.38,22.65-27.97c1.95,5.06,4.0099,10.08,5.78,15.2c1.2,4.21-1.75,8.02-3.97,11.31
	c-3.61,5.28-8.72,9.2-13.01,13.86c6.82,0.09,13.74-0.41,20.44,1.21c25.48,5.23,47.67,20.43,66.11,38.24
	c-20.71,10.64-42.64,19.85-65.94,22.62c-9.73,0.57-19.84,0.85-29.01-2.99c-10.3-4.04-18.3-13.2-21.56-23.7
	c-1.6-4.24-2.61-8.78-1.54-13.28c-4.85,2.15-9.23,5.16-13.81,7.8c-18.54,10.73-37.47,20.74-56.47,30.61
	c-7.1,4.11-14.91,7.16-21.27,12.44c13.59-0.6,26.73,3.58,39.47,7.77c14.66,4.86,28.83,11.01,43.05,17.01
	c4.83-5.9,10.99-10.63,18.27-13.06c11.17-3.58,23.24-3.34,34.68-1.23c22.15,4.37,42.69,15.1,60.34,28.99
	c-12.51,8.39-25.48,16.16-39.33,22.15c-15.88,6.61-33.43,12.26-50.75,8.69c-13.55-2.57-24.4-13.73-28.11-26.8
	c-7.13-2.8-14.58-4.65-21.94-6.72c10.04,23.73,8.61,50.54,2.42,75.07c-18.07-10.42-35.44-22.69-49.03-38.66
	c-8.22-9.91-15.25-22.19-14.23-35.51c-0.01-5.4,2.11-10.45,4.45-15.2c-12.64-2.58-25.12-5.86-37.76-8.46
	c-8.53,6.45-18.59,10.34-28.38,14.44c-13.08,5.13-26.33,9.89-39.74,14.08c-4.15,1.35-8.29,2.71-12.47,3.91
	c0.03,0.32,0.1,0.95,0.14,1.26c17.01,5.65,31.63,16.83,44.02,29.56c15.79,16.72,28.35,36.41,37.53,57.46
	c-19.54,2.82-39.3199,3.05-59.02,2.48c-19.38-1.34-39.13-4.25-56.73-12.89c-12.22-6.06-23.18-15.87-28.04-28.87
	c-3.71-9.42-4.14-19.74-3.26-29.71c-14.02,3.22-27.75,7.57-41.78,10.77c0.07,0.69,0.14,1.39,0.22,2.09
	c8.6,3.17,16.01,8.9,22.3,15.46c7.39,7.12,13.09,15.75,18.08,24.67c-11.12,2.02-22.38,3.42-33.69,3.43
	c-12.29-0.64-25.65-1.95-35.52-10.1c-7.41-6.08-9.87-16.21-9.09-25.43c-14.2,2.66-28.13,6.64-42.21,9.86
	c-22.91,30.71-46.75,60.73-70.31,90.95c-23.8,30.25-47.76,60.37-71.93,90.33c-15.37,19.44-28.93,40.31-40.2,62.4
	c-10.18,21.29-18.45,43.73-21.68,67.2c-1.05,9.56-2.46,19.28-0.53,28.83c21.38-3.18,42.5-8.33,62.75-15.96
	c2.53-0.98,5.09-1.88,7.71-2.58c0.25-0.41,0.73-1.23,0.98-1.64c-9.68-6.14-16.66-16.26-18.92-27.49
	c-3.74-16.49,0.61-33.59,7.36-48.7c8.48-18.7,21.6-34.8,35.96-49.28c8.62,14.92,15.09,31.06,20,47.56
	c5.12,18.36,8.02,38.6,0.62,56.77c9.89-5.71,19.65-11.72,28.98-18.32c1.44-0.81,0.15-2.41-0.58-3.2
	c-8.15-9.02-11.39-21.84-9.54-33.75c2.22-14.04,9.4-26.79,18.29-37.69c18.55-22.1299,43.39-38.35,69.96-49.23
	c1.08,11.98,2.13,23.98,2.23,36.02c-0.7,21.28-2.43,43.24-11.68,62.76c-5.32,11.58-14.2,22-26.17,26.95
	c-8.44,3.75-17.82,4.2401-26.91,3.77c-22.58,18.32-48.09,32.65-73.95,45.75c4.52,3.45,9.25,6.74,12.85,11.22
	c11.12,13.33,15.94,30.6,18.26,47.5c-12.29-1.65-24.32-5.21-35.74-10.03c-9.32-4.21-18.76-9.62-24.52-18.36
	c-2.79-4.01-3.89-8.87-4.42-13.64c-18.85,8.45-37.69,16.94-56.85,24.68c1.44,12.76,3.26,25.51,3.45,38.37
	c1.39,12.62,0.7,25.35,1.01,38.02c-0.09,13.01-0.04,26.01-0.36,39.02c-0.42,4.89-0.89,9.78-0.79,14.71
	c0.14,6.1-1.02,12.13-1.1,18.23c18.68-0.69,36.83-5.8,54.69-10.91c13.21-3.76,26.06-8.62,39-13.17c-3.27-3.73-6.88-7.38-8.57-12.16
	c-5.31-13.56-2.15-28.67,3.05-41.75c6.68-15.87,16.72-30.37,29.32-42.12c10.35,18.26,19.08,38.04,21.24,59.11
	c0.73,5.86-0.37,11.69-1.06,17.49c9.25-3.71,17.62-9.21,26.61-13.45c-0.18-0.61-0.35-1.2-0.52-1.77
	c-11.58-5.46-19.14-17.15-21.99-29.34c-3.68-15.65-0.56-31.98,4.43-46.98c9.23-26.17,25.89-49.12,45.22-68.77
	c11.49,20.08,21.31,41.29,27.23,63.71c3.27,12.27,4.91,25.01,4.32,37.71c3.45-3.3,6.28-7.15,9.12-10.96
	c11.02-14.37,20.73-29.67,30.24-45.06c1.06-1.72,1.9-3.58,2.7-5.43c-9.91-1.86-17.94-9.46-21.64-18.66
	c-5.75-14.03-5.34-29.81-2.27-44.42c1.71-8.66,4.63-17.01,8.06-25.1201c11.53,9.54,22.64,19.88,31.39,32.08
	c3.36,4.55,5.76,9.68,8.55,14.57c5.65-11.28,12.18-22.15,17.24-33.71c-2.71-1.89-5.69-3.39-8.2-5.56c-4.51-3.79-7.41-9.06-9.67-14.4
	c-4.33-13.52-2.13-28.06,2.48-41.18c4.37-12.2401,10.97-23.56,18.61-34.03c-4.83-17.11-7.94-34.82-7.63-52.64
	c-0.36-18.57,2.32-37.06,6.41-55.13c3.64,1.29,7.04,3.16,10.38,5.09c16.06,8.71,31.5,18.57,46.06,29.61
	c16.1,12.28,30.99,26.61,41.56,44.03c0.93-3.17,1.8-6.35,2.71-9.51c-7.28-4.68-8.9301-14.15-9.54-22.14
	c0.35-13.38,8.61-25.04,18.56-33.34c15.33-12.62,34.39-19.87,53.63-24.02c7.14-1.64,14.46-2.19,21.69-3.3
	c-4.49,20.22-10.79,40.27-21.35,58.2c-6.15,10.08-13.81,19.78-24.47,25.33c-7.89,4.27-17.17,5.29-25.93,3.63
	c-2.39,8.32-6.09,16.2-8.46,24.52c-1.18,4.85-0.55,9.96-2.03,14.76c-1.11,4.43-3.32,8.46-5.59,12.39
	c-1.97,3.39-2.71,7.28-3.69,11.03c10.75-9.77,23.26-17.55,36.83-22.74c18.46-7.28,38.21-10.79,57.95-12.04
	c16.65-0.25,33.39-0.65,49.9,1.91c-12.41,27.11-27.41,53.26-46.59,76.18c-10.98,13.07-23.66,25.03-38.71,33.3
	c-12.61,6.83-27.37,10.63-41.68,8.05c-9.93-1.45-19.13-5.81-27.59-11.04c0.04,17.83,3.3,35.54,7.82,52.75
	c4.0099,14.54,9.18,28.82,16.23,42.18c1.64,3.09,3.41,6.19,6.08,8.54c5.09-14.38,16.04-25.55,26.94-35.78
	c21.5099-18.74,45.67-34.58,71.89-45.93c36.84-16.38,76.39-25.23,115.7-33.42c9.1-2.19,18.6-3.57,26.99-7.9
	c10.8-6.69,20.67-14.75,30.85-22.32c5.94-4.8,12.3-9.13,17.79-14.47c-4.54-2.32-9.12-4.78-12.74-8.43
	c-6.89-7.0601-10.68-16.6-12.17-26.2401c-1.63-14.43,0.18-29.14,4.78-42.89c5.43-17.64,14.75-33.75,25.31-48.77
	c12.03,15.16,23.04,31.32,30.98,49.05c5.6801,12.77,9.6201,26.54,9.42,40.63c10.6-7.75,20.47-16.48,30.53-24.93
	c7.04-6.71,14.55-13.39,18.85-22.31c2.2001-4.16,2.8501-8.86,3.88-13.39c-12.61,5.49-27.41,6.38-40.27,1.23
	c-14.34-5.58-25.9-16.58-34.73-28.95c-20.72-29.73-29.05-66.47-30.19-102.24c28.83,7.12,57.36,16.88,82.83,32.4
	c10.82,6.52,20.5701,14.79,28.65,24.52c1.1,1.43,2.49,2.59,3.99,3.62c3.0601-20.35,13.34-38.53,23.62-56.01
	c-12.05-1.38-23.46-6.88-32.89-14.4c-13.94-11.37-21.93-28.67-24.42-46.23c-3.91-26.39,2.37-53.2,12.25-77.62
	c7.94-19.48,18.72-37.7,30.92-54.81c13.8,16.27,25.55,34.25,35.9501,52.86c13.01,24.22,24.08,50.8,23.5,78.78
	c5.8999-5.97,10.99-12.68,16.75-18.78c1.6899-1.75,3.6-3.36,4.8899-5.47c-3.87-10.8-2.37-23.06,3.54-32.84
	c9.38-15.21,24.3101-26.21,40.1801-33.94c12.52-6.2,25.95-10.55,39.64-13.3c-0.65,13.2-3.12,26.26-6.4601,39.03
	c-2.9299,11.27-7.1,22.3-13.14,32.28c-5.7899,9.58-14.1699,18.21-25.08,21.65c-6.5699,2.3-13.59,1.65-20.41,1.39
	c-2.5499,2.34-5.11,4.68-7.4299,7.25c11.77,0.45,23.49,3.53,33.71,9.47c4.9401,2.56,9.72,5.41,14.1801,8.75
	c-14.0601,9.74-29.62,18.88-47.03,20.34c-9.33,1.07-19.38-2.63-24.46-10.82c-0.8201-2.1-3.0701-0.86-3.9701,0.45
	c-7.47,8.55-14.7999,17.23-21.88,26.11c-3.6499,4.91-8.2,9.34-10.37,15.18c26.42-11.78,56.5801-11.79,84.4301-5.58
	c-10.16,17.06-21.5,33.71-36.15,47.26c-7.23,6.83-15.38,12.92-24.7,16.58c-7.29,2.68-15.3201,4.21-22.99,2.34
	c-5.6901-1.01-10.7301-3.94-15.65-6.79c-0.6901,17.94,1.16,36.03,6.36,53.25c15.33-13.37,33.0699-23.42,50.36-33.95
	c8.39-5.47,17.39-9.91,25.96-15.09c8.52-4.26,16.37-9.92,25.3301-13.25c0.12-4.92-0.54-9.95,0.83-14.76
	c2.59-9.93,9.54-18.22,17.91-23.9c16.87-11.8,37.6799-16.3,57.9199-17.66c9.2201-0.06,18.52-0.53,27.6801,0.87
	c-7.1899,15.39-14.78,30.73-25.11,44.3c-6.84,9.11-14.74,17.64-24.41,23.79c-7.4399,4.75-16.2999,7.67-25.1899,7.05
	c-8.4401-0.6-16.53-4.07-23.17-9.25c-7.97,3.3-15.34,7.82-22.9,11.93c-5.39,3.29-11.25,5.96-15.99,10.21
	c8.63,1.32,17.37,2.2,25.6901,5.02c10.95,3.25,21.25,8.28,31.1699,13.87c-13.85,12.08-28.73,23.35-45.63,30.81
	c-10.96,4.63-23.34,8.27-35.1699,4.92c-10.73-2.83-18.36-12.09-22.9-21.78c-0.3,0.09-0.91,0.25-1.21,0.33
	c-8.8101,7.82-18.2101,15.01-26.3401,23.56c14.04-0.61,27.5701,4.71,39.2101,12.2c10.49,7.28,20.3899,15.6,28.11,25.85
	c-8.78,4.06-18.2201,6.23-27.4701,8.93c-11.8799,2.94-24.23,4.42-36.46,3.19c-8.1899-1.04-16.47-3.95-22.4399-9.84
	c-3.65-3.56-5.87-8.24-7.76-12.89c-8.77,8.69-15.9901,18.78-23.9301,28.21c-9.54,13.75-19.6,27.29-26.98,42.37
	c19.96-5.13,39.79-10.77,59.88-15.41c47.86-11.68,96.1-21.71,144.46-31.09c22.4701-5.26,44.75-11.37,66.61-18.8
	c4.41-1.64,9.2001-2.47,13.1901-5.1c-1.86-0.51-3.64-0.96-5.48-1.3701c-6.11-4.52-11.8201-9.75-15.99-16.15
	c-6.16-9.12-9.03-20.29-8.74-31.24c0.75-19.54,9.63-37.75,21-53.29c22.1599-29.77,53.3099-51.76,86.48-67.74
	c4.6799,26.37,6.5499,53.26,4.86,80.01c-1.5701,18.72-5,37.69-13.7001,54.52c-2.36,4.71-5.59,8.91-8.2599,13.44
	c19.36-7.07,38.23-15.46,57.23-23.46c3.1799-1.34,6.34-2.72,9.4-4.34c-7.1001,0.07-12.3201-5.27-16.52-10.35
	c-6.7001-8.14-10.0601-18.93-9.1901-29.43c1.01-15.7,8.67-30.12,18.09-42.39c17.3-22.05,40.78-38.52,65.8501-50.64
	c3.5699,23.27,5.9299,47,2.85,70.46c-1.53,12.1-4.34,24.24-10.1,35.07c-0.92,1.79-1.7101,3.64-2.4301,5.51
	c9.54-3.89,18.66-8.71,28.05-12.92c8.72-3.99,17.1-8.7,25.97-12.37c-0.7-11.68,3.78-23.52,12.01-31.84
	c10.85-11.6,26.1899-17.81,41.42-21.22c28.1799-6.26,57.5299-3.15,85.2,4.11c-10.47,16.69-22.78,32.19-36.47,46.34
	c-10.77,10.41-22.41,20.29-36.0601,26.7c-10.13,4.48-21.48,7.3-32.5499,5.22c-11.38-2-21.7101-8.57-29.2301-17.21
	c-3.34,0.2-6.0299,2.34-8.88,3.83c-10.4199,5.6-21.0099,10.87-31.6599,15.99c-3.85,1.9-7.9601,3.43-11.25,6.26
	c9.14,0.99,18.37,1.77,27.15,4.7c18.6499,5.67,35.5699,16.01,50.48,28.42c20.33,17.11,37.5699,37.79,51.35,60.48
	c-22.58,5.76-45.59,10.09-68.84,11.76c-24.5601,1.85-50.01,1.18-73.38-7.38c-13.89-4.96-26.41-14.15-34.3301-26.7
	c-6.9299-11.61-9.7-25.23-9.9199-38.62c-0.4501-3.22,1.8999-5.67,3.3199-8.28c-8.5,3.02-16.5,7.23-24.8099,10.72
	c-11.7301,5.19-23.4701,10.39-35.26,15.45c-2,0.87-3.88,1.98-5.7001,3.15c14.5601,3.52,28.4401,9.73,40.5601,18.58
	c20.02,14.42,36.4299,33.51,49.24,54.51c-23.65,6.63-48.1901,10.18-72.76,10.36c-19.2-0.68-39.65-3.1-55.5701-14.82
	c-6.3799-4.38-10.9199-10.84-14.22-17.74c-4.46-7.92-5.27-17.19-5.78-26.08c-25.6699,10.45-51.0499,21.61-76.6699,32.18
	c6.47,6.9901,15.02,11.46,23.0599,16.35c16.9301,9.2,34.36,17.44,52.15,24.85c11.66,4.67,23.36,9.23,34.98,13.98
	c20.79,7.2,41.4401,14.85,62.38,21.63c37.98,12.25,76.11,24.14,114.7101,34.33c-4.02-9.39-6.0601-19.81-4.01-29.94
	c2.71-14.23,11.27-26.66,21.76-36.36c12.48-12.23,27.9399-21,43.8999-27.85c21.0701-8.92,43.5701-14.08,66.25-16.73
	c-4.0199,22.73-10.5399,45.05-19.5699,66.3c-9.4401,21.6-22.5,43.22-43.37,55.42c-1.1801,0.76-2.05,1.87-2.92,2.93
	c19.7101,3.02,39.49,5.91,59.42,6.95c-2.15-4.14-4.6801-8.11-6.16-12.55c-3.7999-10.8701-2.3199-23.1,2.62-33.36
	c6.14-12.68,16.0801-23.14,27.25-31.56c21.75-16.71,48.0701-26.3,74.64-32.15c-1.49,21.25-5.48,42.39-12.2999,62.58
	c-4.0901,11.67-9.3701,23.04-16.75,33.01c-3.65,5.03-8.6001,8.88-12.63,13.57c13.5199-0.5,26.85-3.23,40.0099-6.23
	c2.4-6.29,5.9801-12.17,10.9501-16.77c7.33-7.07,17.16-10.98,27.09-12.64c20.91-3.45,42.24,1.74,61.6,9.58
	c16.99,7.02,32.74,16.84,47.14,28.23c-18.83,12.53-38.7,23.75-60.0499,31.39c-8.9801,3.17-18.2101,5.79-27.6801,6.91
	c-11.7,1.64-24.0699,0.8799-34.87-4.25c-12.53-6.15-21.48-18.31-25.37-31.54c-12.46,3.46-25.14,6.26-38.0699,7.23
	c-50.0901,4.0099-100.1101-2.9301-149.89-7.72c-5.15-0.35-10.3301-0.62-15.4601,0.04c7.26,5.57,14.7001,11.09,20.6801,18.09
	c15.48,16.61,29.15,34.84,42.0699,53.49c7.01-4.47,15.2101-7.46,23.64-6.69c16.4,1.28,30.53,11.4,41.54,22.98
	c13.42,14.65,23.1,32.41,29.5699,51.13c-11.99,1.27-24.0499,0.51-36.0299-0.4c-12.27-1.25-24.53-3.47-36.1001-7.84
	c-7.74-3.1-15.36-7.1-21.11-13.28c-6.23-6.32-9.88-15.21-9.5699-24.12c-0.3-5.29,0.9299-10.45,1.4399-15.67
	c-6.14-5.73-11.22-12.54-17.7999-17.8c0.49,16.6-7.6901,32.03-18,44.51c-9.76,11.27-21.11,21.3-33.98,28.88
	c-3.89-12.76-6.1101-25.99-7.5-39.24c-0.28-9.69-0.7401-19.53,1.4099-29.06c1.88-9.22,5.98-18.33,13.17-24.61
	c4.88-3.9,10.78-6.33,16.77-7.99c-0.11-0.24-0.3401-0.72-0.4501-0.96c-16.25-15.41-32.71-30.61-49.2699-45.69
	c-6.88-0.37-13.7201-1.24-20.55-2.15c3.08,6.19,6.41,12.33,8.16,19.07c6.4099,22.52,3.63,46.57-2.77,68.76
	c-5.04,17.31-12.4601,33.9-21.63,49.4c-13.11-12.9-24.62-27.3199-35.4401-42.16c-5.97-8.31-10.8199-17.32-15.5-26.39
	c-5.1899-11.01-9.73-22.55-10.9199-34.76c-0.4701-8.7599-0.5901-17.8,2.65-26.1c3.0099-9.33,9.99-16.42,16.37-23.53
	c-39.3601-12.33-78.14-26.42-116.76-40.8799c-41.3401-15.6201-82.4801-31.76-123.3501-48.57c-3.0599-1.53-6.2599,0.36-9.25,1.08
	C1063.6,638.85,995.01,658.21,926.19,676.7c-21.65,5.98-43.44,11.49-65.08,17.52c-26.42,7.45-52.2,17.1801-76.87,29.25
	c-22.59,11.41-44.32,24.85-63.37,41.6c-10.91,9.41-20.84,20.03-29.09,31.86c-1.27,1.75-2.23,3.71-2.6801,5.84
	c26.83,13.8,55.4301,24.23,85.01,30.28c-3.75-9.7-6.76-20.17-5.02-30.64c1.75-14.69,10.04-27.77,20.4-37.98
	c16.96-16.07,38.61-26.25,60.79-32.9c25.12-7.51,51.45-10.35,77.61-10.1c-6.98,21.22-15.34,42.05-26.08,61.67
	c-9.98,18.1-21.76,35.57-37.38,49.31c-3.93,3.47-8.41,6.2401-12.36,9.6801c17.1,0.65,34.24-0.15,51.27-1.6801
	c-0.7401-11.27,5.06-22.2599,13.84-29.09c7.67-6.16,16.88-10.14,26.37-12.52c23.08-5.8,47.52-4.07,70.44,1.68
	c-9.73,15.08-20.24,29.85-33.4,42.16c-6.72,6.71-14.4,12.52-22.83,16.92c-7.95,3.85-16.95,6.57-25.85,5.14
	c-9.56-1.18-18.33-6.35-24.74-13.42c-8.24,0.59-16.28,2.8-24.54,3.29c13.36,12.09,19.82,29.88,22.03,47.38
	c1.32,8.23,1.05,16.6,0.96,24.91c-17.57-6.32-35.05-13.98-49.48-26.07c-7.4-6.16-13.91-14.09-16.22-23.62
	c-1.71-7.39-0.17-15.06,3.01-21.83c-21.93-0.69-43.79-2.7-65.62-4.91c4.23,6.66,8.87,13.11,12.07,20.37
	c10.79,23.42,14.89,49.52,14.35,75.17c0,3.69-0.02,7.38-0.11,11.07c-18.47-6-36.31-13.93-53.27-23.38
	c-16.87-9.67-33.19-21.3-44.78-37.16c-7.99-11-12.68-24.99-10.46-38.62c0.84-6.4,3.34-12.39,5.94-18.24
	c-13.43-2.34-26.87-4.66-40.21-7.44c-4.04,11.31-11.42,20.98-17.9901,30.9c-26.2599,37.29-54.78,72.92-83.41,108.41
	c-3.27,4.05-6.74,7.95-9.63,12.29c9.55,6.12,19.85,10.93,30.31,15.29c3.43,1.34,6.75,3.18,10.45,3.69
	c2.72-8.05,5.25-16.19,8.93-23.88c14.18,11.52,27.63,24.04,39.16,38.25c2.44,3.73,7.34,3.58,11.14,4.92
	c11.64,3.14,23.36,5.95,35.13,8.55c-0.08-10.66,4.49-20.71,10.74-29.12c8.19-11.05,19.13-19.87,30.97-26.75
	c3.6,14.05,5.8,28.64,4.76,43.17c-0.52,7.1301-2.48,14.05-5.4,20.56c37.17,5.96,75.08,9.71,112.66,5.8
	c-0.05-0.27-0.17-0.8301-0.23-1.11c-8.43-6.79-9.63-18.8501-7.3-28.7601c4.44-18.62,18.01-33.09,32.05-45.27
	c0.28,0.71,0.83,2.13,1.1,2.83c4.36,10.4301,7.81,21.27,9.59,32.45c1.72,11.34,1.42,23.72-5.12,33.6
	c12.86-3.5,25.49-7.8101,38-12.38c-3.07-3.05-7.04-5.17-9.54-8.77c-6.51-8.68-7.75-20.33-5.58-30.72
	c3.51-17.9901,14.06-33.69,26.17-47.09c9.64,16.22,18.12,33.86,19.7,52.92c0.76,8.4-1.57,16.78-5.95,23.92
	c12.38-4.4,24.2-10.23,36.43-15c0.3-0.4,0.88-1.1801,1.18-1.58c-12.65-9.91-21.34-25.12-21.97-41.32
	c-1.33-23.04,9.27-44.91,23.01-62.76c17.69-22.45,40.52-40.62,65.48-54.38c5.38,21.29,7.75,43.24,8.5299,65.14
	c-0.1,22.21-2.36,45.28-13.22,65.1c12.8-5.93,25.15-12.78,37.79-19.03c-1.47-9.67,0.26-19.98,6.4-27.8
	c9.7999-12.71,25.5699-19.02,40.84-22.28c20.1-4.32,40.98-2.98,61.0599,0.8c-7.5499,13.98-16.5399,27.23-26.99,39.2
	c-8.86,9.54-18.39,18.9-30.35,24.44c-10.8,5.29-24.05,6.01-34.9299,0.54c-3.9701-1.72-7.0701-4.87-10.8601-6.85
	c-3.75,0.78-6.8899,3.14-10.2899,4.75c-9.13,4.53-18.29,8.98-27.4601,13.42c-7.96,3.85-16.3799,6.98-23.4299,12.45
	c-7.33,5.37-16.31,7.28-24.75,10.07c-40.09,18.13-80.14,36.35-120.47,53.91c-0.48,0.65-0.95,1.3-1.4,1.97
	c6.58,1.04,13.28,0.4301,19.89,1.16c6.62,0.74,13.29,0.29,19.91,0.99c5.01,0.4701,10.17,1.03,15.08-0.4199
	c32.45-7.92,64.27-18.11,96.0699-28.27c2.64-7,8.12-12.95,15.14-15.67c8.38-3.19,17.66-3.26,26.36-1.41
	c16.85,3.29,31.97,12.21,45.26,22.78c-14.21,9.02-29.47,16.9601-46.02,20.53c-9.65,1.92-20.48,2.17-29.01-3.4401
	c-5.9-3.46-9.1899-9.75-11.72-15.85c-12.68,3.64-25.33,7.35-37.94,11.2201c-4.31,1.3999-8.87,2.1899-12.84,4.47
	c18.87,4.6699,35,16.85,47.48,31.4399c14.16,16.36,24.61,35.6801,32.11,55.91c1.39,3.73,2.64,7.52,3.8999,11.3199
	c-25.38,0.53-50.9999-1.34-75.64-7.74c-16.4-4.5399-33.12-11.2999-44.78-24.1699c-6.41-7.04-10.4301-16.1901-11.39-25.65
	c-1.14-6.58,0.52-13.15,1.03-19.7001c-7.43,0.5801-15.61-1.45-22.25,2.8301c-13.2,7.13-24.19,17.75-33.74,29.2
	c-6.3,7.67-12.03,15.9-16.13,24.98c-2.35,5.4401-4.52,11.62-2.23,17.4701c1.22,1.1699,2.44,2.37,3.66,3.58
	c20.87,3.6899,41.28,9.48,61.82,14.58c74.1,19.36,147.92,39.8201,221.72,60.28c5.1899,0.6801,10.2-1.84,15.28-2.6799
	c5.72-1.01,11.14-3.02,16.3099-5.64c-1.8099-7.62-1.3099-15.8501,2.5701-22.77c6.7699-12.42,19.3099-20.52,32.1899-25.55
	c8.74-3.4199,17.96-5.45,27.24-6.72c-3.36,16.77-8.28,33.64-17.79,48.04c-2.7599,4.11-6.0399,7.89-9.97,10.9199
	c6.25,4.23,12.91,7.9401,18.4401,13.1801c6.75,5.42,12.14,12.25,17.5699,18.9399c-16.65,5.27-33.9199,9.88-51.5499,8.77
	c0.09,0.34,0.2699,1.02,0.35,1.36c8.6,5.54,16.8099,11.7101,25.7,16.8c9.65,4.8099,20.24,7.3099,30.73,9.5599
	c21.11,4.0601,42.5701,6.1901,64.03,7.12c25.96,1.5801,52.01,1.15,77.96-0.4399c24.3101-1.86,48.9601-4.12,72.2301-11.87
	c14.21-4.5,24.9399-15.74,33.4199-27.53c4.4601-6.25,8.54-12.7999,11.8-19.76c-7.05,2.86-14.8301,4.8-22.4,2.91
	c-15.9-3.42-28.28-15.28-37.9399-27.73c-17.9701-24.15-27.7001-53.67-31.27-83.35c23.35,2.86,46.5,8.0199,68.5699,16.23
	c13.9501,5.5499,28.01,12.3099,38.34,23.52c3.49,3.4399,5.7301,7.84,8.14,12.0599c6.28-19.58,11.88-39.39,17.01-59.2999
	c1.15-7.8,3.9401-15.25,4.9301-23.05c-5.5,3.33-10.38,7.8-16.48,10.0599c-6.74,2.52-14.0901,3.54-21.2201,2.39
	c-9.45-0.6699-17.7999-5.45-25.84-10.0299c-16.03-10.67-28.3099-25.9801-38.33-42.2301
	C1423.96,1030.78,1413.67,997.01,1409.48,962.81c21.77,2.96,43.46,7.02,64.62,13c19.8101,5.4,39.16,12.84,57,23.09
	c4.78,3.13,9.7001,6.13,14,9.95c1.3201,1.16,2.88,2,4.4601,2.83c-0.3-18.75-2.53-37.39-4.2001-56.05
	c-6.6899-2.17-13.0599-6.08-16.88-12.12c-6.34-9.41-6.99-21.41-5.49-32.33c3.3201-21.4,14.4401-40.72,28.04-57.24
	c10.0699,14.41,18.87,29.93,24.15,46.77c3.34,11.56,5.37,24.49,0.25,35.86c-3.2301,7.64-9.8201,13.23-17.15,16.78
	c-0.03,4.65,1.1899,9.13,2.12,13.65c5.75,34.1,11.9199,68.12,17.5399,102.24c7.04-5.14,13.5701-10.95,20.5-16.23
	c0.0601-0.64,0.15-1.25,0.28-1.84c-7.83-4.3-12.4-13.0701-12.53-21.86c-0.7799-15.92,6.54-30.98,15.6101-43.6201
	c4.1799-6.12,9.5399-11.25,14.5199-16.69c9.2301,17.01,16.89,35.69,16.9601,55.33c7-4.89,13.12-10.91,20.0699-15.89
	c12.23-10.08,24.4601-20.16,36.97-29.87c-1.6699-11.4,1.3301-23.51,8.62-32.5c9.9701-12.45,25-19.58,40.16-23.47
	c29.3-7.33,60.3101-4.77,89.26,2.94c-11.17,17.36-23.73,33.91-38.37,48.5c-10.23,9.72-21.3099,18.88-34.24,24.77
	c-9.53,4.38-20.25,6.92-30.73,5.29c-10.7001-1.62-20.65-7.08-28.12-14.84c-0.48,0.06-1.4301,0.18-1.91,0.24
	c-8.97,8.63-18.1899,17-27.47,25.29c-0.16,0.42-0.48,1.25-0.65,1.66c18.6801,0.23,35.73,10.19,48.71,23.0099
	c2.77,2.9501,5.67,5.78,8.3201,8.8501c-8.59,4.09-17.64,7.0699-26.9,9.1699c-11.37,2.7001-23.5,4.55-34.9399,1.22
	c-7.0901-1.5199-13.4401-6.2799-16.78-12.71c-1.23-2.21-2.27-4.5-3.24-6.8099c-0.3401,0.0599-1.02,0.1899-1.36,0.25
	c-23.2201,21.5599-46.64,42.9199-70.03,64.2899c-0.35,8.5701-2.72,16.9-5.38,25c0.45-0.14,1.36-0.4099,1.8099-0.5499
	c17.63-8.27,37.8501-8.9301,56.89-6.5801c25.4,3.25,49.8,12.16,72.24,24.35c-12.71,12.6201-26.61,24.13-41.5299,34.04
	c-13.53,9.34-28.15,17.3201-43.8501,22.34c-13.0699,4-27.3999,5.77-40.5599,1.25c-9.86-3.1-18.0801-9.95-24.36-17.99
	c-0.53-0.13-1.6-0.37-2.14-0.5c-0.1,0.53-0.3,1.5801-0.4,2.11c-13.76,32.4401-28.34,64.51-43.35,96.39
	c48.09-9.9199,96.21-19.7,144.4399-28.9099c24.0601-4.3,48.17-8.62,71.74-15.17c22.67-6.11,44.87-13.84,66.66-22.55
	c14.6801-5.8899,29.04-12.5199,43.5-18.9099c8.08-4.5701,16.55-8.41,24.79-12.6801c5.85-2.27,11.11-5.6899,16.63-8.62
	c14.27-7.09,27.97-15.24,41.95-22.89c23.25-12.9199,45.84-26.97,68.74-40.49c4.51-2.99,9.14-5.8199,13.9401-8.33
	c-0.4501-5.13,0.71-10.14,1.01-15.2101c0.0599-8.6799,1.9099-17.21,2.0699-25.87c4.0701-46.1,8.16-92.2,12.37-138.29
	c3.1-30.25,5.27-60.6299,9.47-90.7599c-1.4299-7.65-6.6899-14.07-12.1599-19.36c-1.3501,6.7-4.8,13.06-10.2101,17.33
	c-9.5399,7.74-21.88,10.94-33.87,12.23c-12.1,1.23-24.34,0.04-36.1799-2.54c9.02-14.97,19.35-29.55,33.2999-40.32
	c3.49-2.75,7.49-4.71,11.4601-6.67c-3.0601-3.31-7.52-4.65-11.2301-7.02c-5.1499-2.77-9.7-6.56-15.0699-8.89
	c-4.83,9.19-13.91,15.39-23.61,18.55c-17.52,5.73-36.52,4.33-54.1901,0.06c-12.46-2.89-24.35-7.77-35.85-13.31
	c12.72-13.2,26.89-25.12,42.65-34.54c7.9-4.52,16.12-8.65,24.97-10.98c-3.9199-5.27-8.6699-9.83-12.6799-15.01
	c-12.67-15.34-23.99-31.79-33.99-48.99c-2.99-5.22-6.0801-10.42-8.42-15.97c-10.4301,3.95-22.1899,4.13-32.79,0.79
	c-7.74-3.16-15.21-7.75-20.1599-14.64c-11.8101-15.93-15.12-36.23-15.66-55.6c0.0699-20.35,3.58-40.6,9.45-60.06
	c5.86-18.22,12.9301-36.2,22.79-52.67c14.6801,12.93,27.88,27.43,40.54,42.31c11.7699,14.59,23.0599,29.8,31.24,46.75
	c5.01,9.57,8.6799,19.9,10.5299,30.56c2.6901,15.83-1.9099,33.2401-13.7999,44.4c-5.76,5.15-12.28,9.43-19.11,13.02
	c3.64,8.05,8.9299,15.16,13.7,22.56c3.1,3.73,6.17,7.5,8.97,11.48c0.4801,0.2,1.4401,0.61,1.92,0.81
	c3.41-17.83,14.72-32.92,27.08-45.69c4.1801,8.13,8.7001,16.17,11.4401,24.94c4.02,12.25,7.12,25.75,3.17,38.42
	c-1.5901,5.56-5.51,9.97-9.7401,13.73c11.88,9.42,23.88,18.76,36.8301,26.68c-1.13-21.76,5.64-43.2,16.02-62.12
	c12.5299,12.72,24.5499,26.33,32.63,42.41c5.22,10.53,9.0399,22.67,6.2999,34.46c-1.0499,5.09-3.85,9.54-6.65,13.83
	c9.0601,4.05,17.77,8.8799,27.05,12.46c4.99-20.99,8.11-42.37,12.95-63.4c2.7001-12.72,4.8201-25.6,5.8101-38.57
	c-8.85,3.15-18.51,4.39-27.74,2.33c-18.66-3.62-34.1-16.48-45.29-31.31c-4.1699-5.92-8.04-12.06-11.66-18.3199
	c-7.84-14.8701-13.24-30.9-17.0099-47.25c23.36,1.86,46.86,5.2599,69,13.25c12.0699,4.25,23.4399,10.4399,33.35,18.54
	c-2.1901-15.6-6.16-30.86-9.38-46.26c-8.88,4.32-18.13,8.23-28.05,9.19c-13.23,1.23-26.85-1.03-38.88-6.69
	c-22.66-11.04-40.5599-30.06-53.3199-51.52c-9.7101-15.07-16.5-31.8-22.1801-48.74c-2.5499-8.5-5.5499-16.98-6.48-25.86
	c23.59,1.99,47.1901,5.1,70.1,11.22c9.4301,2.09,18.64,5.13,27.61,8.74c4.9501,1.54,9.3401,4.45,14.37,5.77
	c-1.5699-3.3-3.37-6.46-5.0599-9.69c-8.88-14.82-18.13-29.47-28.66-43.19c-11.0499,1.29-22.79-0.41-32.0499-6.91
	c-13.8201-9.44-21.04-25.75-24.13-41.72c-2.3501-10.63-2.17-21.57-1.9401-32.38c1.02-19.45,5.92-38.49,12.63-56.71
	c15.62,10.38,29.64,23.05,42.52,36.64c10.62,11.85,20.59,24.81,26.02,39.94c4.1699,11.28,5,24.22,0.25,35.45
	c-2.98,7.32-8.05,13.54-13.62,19.04c5.48,3.86,9.48,9.34,14.64,13.58c-1.79-22.69,6.2899-44.9,17.83-64.1
	c19-31.31,46.7301-56.55,77.3199-76.3c7.4299,23.43,12.95,47.52,15.48,71.99c2.0801,21.95,2.1902,44.6-4.52,65.83
	c-4.3699,13.61-12.1299,26.63-23.9199,35.04c-14.28,10.54-32.67,14.06-50.11,13.48c3.16,4.9,5.0599,10.46,8.16,15.4
	c1.8099,2.99,2.99,6.3,4.48,9.47c7.12,12.92,12.52,26.73,17.4199,40.63c2.04,4.17,3.1201,8.7401,5.3301,12.84
	c19.78-30.6,51.05-52.09,84.25-65.95c3.1199,22.94,3.79,46.3,0.79,69.3c-2.1802,15.65-5.9102,31.51-14.26,45.11
	c-4.96,8.06-11.71,15.18-20.0801,19.71c-9.8499,5.39-21.3899,6.92-32.46,6.27c1.73,16.88,0.6399,33.87-1.0901,50.7
	c0.4102-0.17,1.23-0.5,1.6401-0.67c15.48-12.24,33.8298-20.3799,52.6099-26.11c13.76-4.3,28-6.68,42.26-8.57
	c-2.8699,17.37-7.6799,34.42-13.76,50.94c-6.3098,16.45-14.0698,32.68-25.5798,46.17c-9.0701,10.86-21.3501,19.86-35.6001,22.05
	c-10.8799,2.03-21.99-0.54-32.1599-4.4c-2.3301,20.9-5.9402,41.63-8.6401,62.48C2047.67,861.67,2043.79,898.8,2040.9,935.97
	c-0.3,9.38-1.4301,18.71-1.55,28.11c-1.21,8.88-0.41,17.88-1.5,26.78c-0.4199,8.38-0.27,16.78-0.49,25.18
	c-1.13,12.6201-0.5699,25.33-0.72,38.0001c0.1799,7.95-0.42,15.96,0.9399,23.85c0.6901-0.29,1.4-0.5601,2.14-0.8201
	c3.41-6.4299,8.96-11.2899,13.3901-16.97c11.24-12.45,24.0898-23.36,37.7-33.13c11.54-8.4,21.1499-18.99,31.22-29.0099
	c7.3101-8.4,14.3699-17.02,21.03-25.95c5.1299-7.89,10.8101-15.41,15.9099-23.32c3-4.88,6.79-9.23,9.5901-14.24
	c3.9099-6.64,8.25-13.02,12.78-19.26c6.4099-10.75,14.3398-20.49,21.0398-31.06c18.7002-28.97,33.75-60.13,46.9902-91.92
	c13.3599-27.66,28.6199-54.35,44-80.93c-11.9302,1.15-24.1101,0.0099-35.3201-4.34c-13.3901-5.45-25.4399-14.29-34.1702-25.86
	c-18.4299-23.58-26.3499-53.63-28.8999-83.01c-1.76-22.4-0.3999-44.96,3.05-67.13c14.8201,6.29,28.9199,14.17,42.6899,22.49
	c20.6899,12.15,40.1899,26.6,56.8,43.99c12.0701,13.06,22.71,28.23,26.8599,45.78c1.4302,5.31,1.28,10.84,1.76,16.29
	c0.4502-0.36,1.3401-1.06,1.78-1.41c6.05-9.19,12.5901-18.03,18.9001-27.04c-13.8701-3.6-26.4001-12.82-33.27-25.47
	c-8.8801-15.16-9.8801-33.57-7.73-50.62c3.6799-26.6,15.1899-51.54,29.96-73.75c7.6099,9.77,15.8499,19.11,22.52,29.59
	c14.1499,20.22,26.01,43.06,28.6299,67.94c9.46-10.51,18.1802-21.66,27.55-32.26c2.6599-2.79,5.1699-5.75,7.3301-8.96
	c-3.5601,1.24-6.9202,3.74-10.8601,3.12c-14.02-1.08-28.1399-6.36-38.0999-16.53c-11.1702-10.75-17.1802-25.81-19.7002-40.86
	c-3.48-19.76-1.3599-40.08,3.1501-59.49c6.3599-27.26,18.3499-52.89,32.98-76.64c18,19.22,34.48,39.98,47.9099,62.68
	c10.54,18.01,19.3301,37.52,22.1301,58.36c0.6499,6.45,0.3,12.95,0.21,19.42c6.0601-3.23,11.8999-6.87,18.25-9.53
	c5.5801-2.08,8.8301-7.36,13.4099-10.86c4.8801-3.71,8.8101-8.46,13.3401-12.56c-10.46-5-20.5601-11.09-28.8501-19.27
	c-12.7-12.74-18.29-31.65-15.77-49.34c3.6602-25.43,16.6201-48.27,30.99-69.13c12.9702-18.68,28.03-35.8,43.6401-52.29
	c9.3599-9.45,18.8101-18.82,28.8999-27.49c5.1702,8.76,8.6301,18.47,12.4102,27.9c10.1399,26.94,16.7998,55.29,18.6699,84.05
	c1.45,24.03-0.3801,48.8-9.25,71.39c-4.6001,11.6-11.5701,22.56-21.53,30.26c-8.2,7.05-19.0901,10.09-29.71,10.63
	c-4.3201,0.18-8.53-1.27-12.8201-0.85c-2.99,1.11-5.02,3.77-6.9199,6.19c31.55-5.12,64.04-4.56,95.3999,1.7
	c-8.75,15.74-17.8599,31.32-28.46,45.91c-14.22,19.71-30.29,38.49-50.22,52.64c-11.5801,8.19-24.76,14.69-38.9399,16.55
	c-14.8501,2.25-30.23-1.78-42.8301-9.74c-6.95-4.47-13.6599-9.56-18.8899-16.01C2416.02,575.94,2401.29,593.84,2387.5,612.46
	c-29.1699,38.61-57.48,77.92-83.3,118.86c-11.8599,19.45-24.3298,38.91-31.54,60.68c-0.0898,3.08-1.22,8.53,3.4102,8.63
	c19.4399-0.84,38.28-6.39,56.9399-11.53c7.49-2.44,14.95-5,22.46-7.4c-4.4299-4.29-9.45-8.08-12.7-13.43
	c-9.3501-13.72-9.48-31.7-4.6799-47.11c7.8098-25.46,25.2998-46.73,44.8499-64.25c10.3201-9.2599,21.6301-17.41,33.46-24.65
	c0.26-0.29,0.77-0.88,1.02-1.17c5.6902,18.5,9.05,37.68,10.9502,56.93c0.2698,8.4,1.46,16.81,0.45,25.22
	c-0.3,10.4-1.95,20.75-4.98,30.7c6.78-3.22,13.0999-7.43,20.24-9.9c13.0598-4.84,27.23-7.61,41.1599-5.81
	c1.9299,0.15,3.8899,0.18,5.8701,0.28c-3.1902-6.12-6.8801-12.03-8.8201-18.71c-5.73-16.67-2.29-35.03,5.0701-50.61
	c11.47-22.33,30.51-39.84,51.48-53.17c22.3499-13.89,46.8298-24.43,72.3298-30.99c-0.74,26.53-4.0999,53.08-10.79,78.79
	c-2.2898,9.13-5.6599,17.92-8.72,26.8c30.4502-6.35,62.0801-1.54,91.3301,8.03c-10.3,13.66-21.2,26.94-33.5801,38.77
	c-14.1799,13.12-29.8098,25.62-48.48,31.54c-12.21,3.86-26.05,3.73-37.49-2.41c-5.8599-3.02-11.1099-7.17-15.52-12.03
	c-13.0999,3.02-26.6399,2.97-39.96,2.14c3.45,2.7,7.71,3.9301,11.5701,5.9301c20.8599,10.58,38.75,26.18,54.3,43.5
	c10.1299,11.58,19.4399,23.92,27.3799,37.12c-24.49,6.68-49.6899,10.75-75.02,12.32c-14.05,0.31-28.2,0.65-42.1299-1.63
	c-13.6702-1.84-26.96-6.37-39.02-13.06c-12.29-7.39-21.6899-19.29-26.1101-32.92c-2.97-7.76-3.5598-16.11-4.23-24.3
	c-17.4199,9.84-35.78,17.87-54.4099,25.08c-0.0701,0.56-0.21,1.66-0.29,2.21c9.8501,5.86,18.3501,13.8701,24.6799,23.4301
	c6.9102,9.71,12.53,20.36,16.24,31.7c1.03,2.4901,1.9402,5.03,2.8801,7.58c-23.27-0.07-47.25-2.23-68.6401-12.09
	c-7.9399-4.1201-15.73-9.4301-20-17.54c-3.3198-5.01-3.8999-11.05-4.6899-16.83c-20.3599,7.36-40.98,13.9901-61.6099,20.55
	c-0.3201,1.41-0.55,2.85-0.8401,4.27c-5.1499,16.78-11.73,33.09-19.28,48.93c-5.29,10.58-10.2,21.41-16.47,31.46
	c-0.02,0.49-0.04,1.48-0.05,1.98c8.6101,0.16,17.1799,1.14,25.8,1.13c9.72,1.03,19.53,0.58,29.24,1.76
	c6.6799,0.08,13.3601,0.23,20.03,0.93c10.6799,0.1,21.3101,1.22,31.99,1.42c7.21,1.04,14.52,0.5099,21.77,1.16
	c7.98,0.84,16.04,0.37,24.01,1.48c6.9399,0.08,13.8899,0.28,20.8198,0.97c10.3-0.03,20.53,1.33,30.8401,1.37
	c26.98,3.23,54.1699-2.32,79.6699-10.97c18.8301-6.45,36.76-15.24,54.1602-24.86c18.3-10.22,35.3101-22.5,52.5898-34.32
	c31.2102-21.25,62.51-42.36,93.9001-63.34c24.05-15.7,47.8101-31.86,72.0801-47.22c10.8699-27.89,21.3899-55.93,32.0598-83.9
	c-9.98,1.54-20.6499-0.2-28.8699-6.29c-15.04-10.89-22.8301-28.87-27.0701-46.41c-4.6399-19.24-4.75-39.31-2.51-58.88
	c0.23,0.2,0.6899,0.6,0.9199,0.81c17.8501,7.8,34.77,17.95,49.8301,30.34c9.78,9.05,20.0901,18.6299,24.5601,31.56
	c0.45,0.33,1.3499,0.98,1.8,1.31c4.98-14.17,11.1299-27.9,16.0698-42.09c-4.52,2.2-8.5398,5.28-13.03,7.5
	c-3.0298,1.78-6.5898,0.42-9.7-0.27c-15.1399-3.74-29.21-12.68-37.9099-25.75c-12.3501-17.87-15.6899-40.44-14.54-61.73
	c2.6001-37.9,17.8201-73.78,37.49-105.87c14.3501,16.39,27.5701,33.8,38.8,52.49c11.99,20.06,22.1599,41.73,25.77,65l1.21-0.03
	c1.95-5.49,4.3601-10.78,6.6399-16.13c1.3501-2.68,0.3101-5.66,0.0701-8.45c-3.3398-29.21-7.0801-58.38-11.3899-87.46
	c-0.54-0.17-1.6201-0.5-2.1702-0.67c-9.4099-3.22-17.7798-9.55-23-18.07c-5.1499-8.35-7.0298-18.23-7.47-27.91
	c0.1802-19.56,6.4202-38.59,15.55-55.73c8.46-16.65,20.1201-31.39,32.6301-45.15c15.2898,28.11,28.5,58.51,30.22,90.88
	c0.1499,12.47-2,25.48-9.25,35.91c-6.5701,9.88-17.3601,15.88-28.3701,19.52c5.6001,20.17,12.0901,40.15,16.45,60.66
	c5.3301-1.53,8.28-6.63,11.53-10.72c20.1201-28.79,37.3301-59.54,58.48-87.61c-2.5598-6.27-5.03-12.8-4.6199-19.69
	c-0.5701-10.22,3.6599-20.03,9.52-28.19c9.8799-13.03,23.6199-22.63,38.3699-29.42c22.47-10.12,47.0601-15.65,71.7-16.17
	c-6.22,22.45-14.1899,44.59-26.01,64.75c-8.4099,13.93-18.71,27.47-33.1399,35.59c-10.6101,6.03-23.5801,7.69-35.3201,4.33
	c-3.9199-0.91-7.45-2.93-11.3599-3.73c-2.3601,1.98-4.0601,4.59-5.96,6.96c-3.7102,4.93-7.9302,9.53-10.79,15.03
	c18.25-6.64,38.48-2.29,55.23,6.46c12.04,6.09,22.9399,14.3,32.6799,23.6c-17.73,9.92-36.6199,18.39-56.75,21.91
	c-11.79,1.94-24.73,1.84-35.27-4.46c-7.03-4.04-11.71-11.09-14.55-18.51c-0.4199,0.03-1.27,0.1-1.7,0.14
	c-12.3398,20.47-24.3599,41.25-34.0601,63.12c6.5801-3.38,12.9702-7.24,20.0801-9.48c24.75-8.52,51.73-7.58,77.0601-2.24
	c23.1099,4.91,45.3101,13.58,66.21,24.53c-14.3301,14.79-30.1299,28.17-46.75,40.33c-8.0801,5.6-16.02,11.53-24.9099,15.78
	c3.01,26.39,2.29,53.8-6.6301,79.07c18.2-8.57,35.6702-18.74,54.25-26.53c0.6101-10.01,4.6501-19.84,11.72-27.02
	c11.6702-12.3,28.51-18.03,44.8801-20.68c25.76-4.15,52.1599-0.37,77.03,6.86c2.54,0.78,5.0999,1.59,7.6699,2.41
	c-11.6499,15.15-23.76,30.08-38.0901,42.8c-11.6399,10.34-24.3298,19.97-38.96,25.64c-9.6399,3.66-20.26,5.84-30.5,3.58
	c-11.1599-1.98-20.72-8.8-28.45-16.79c-0.0701-0.55-0.23-1.65-0.3-2.2c-3.96-0.78-7.3,1.67-10.6699,3.25
	c-3.8201,1.88-7.77,3.55-11.1599,6.15c16.5999,2.36,30.2998,13.5,40.3198,26.37c9.73,12.69,16.52,27.44,21.2,42.68
	c-21.1199,0-42.6599-1.99-62.5398-9.52c-10.8701-4.27-21.7002-10.98-26.99-21.8c-3.6501-7.02-3.54-15.16-2.8101-22.82
	c-37.9202,19.26-75.21,39.82-111.3601,62.24c-17.3298,10.86-34.3999,22.17-50.6899,34.54c-44.1299,34.68-88.03,69.67-133.02,103.23
	c-0.1299,0.39-0.3699,1.19-0.5,1.58c29.78,0.78,59.6101-0.05,89.27-2.73c-4.8999-9.08-8.3799-19.24-7.7-29.68
	c0.8599-17.27,10.76-32.7,23.03-44.3c14.78-13.77,33-23.33,51.9299-30.04c12.3101-4.27,24.97-7.63,37.8601-9.58
	c-2.6902,19.28-7.2102,38.35-13.76,56.69c-4.3701,11.89-9.6902,23.51-16.8201,34c-3.3401,5.08-7.54,9.49-11.3701,14.18
	c8.3401-1.33,16.53-3.42,24.74-5.43c4.1401-1.05,8.4502-1.88,12.1702-4.14c3.9299-2.33,8.1699-4.22,12.6899-5.14
	c3.3699-0.88,6.95-0.63,10.3101-1.69c8.8098-3.12,17.1299-7.39,25.53-11.46c-2.52-8.5-2.8101-17.83,0.9099-26.04
	c6.6499-15.62,21.46-25.7599,36.3799-32.65c15.9702-7.12,33.3101-11.08,50.75-12.14c4.98-0.96,10.0901-0.51,15.1501-0.8
	c-4.98,17.25-12.3201,33.85-21.4399,49.31c-4.8,7.9-10.1802,15.51-16.9202,21.88c-8.1099,8.67-19,15.5-31.0798,16.25
	c-6.75,0.88-13.27-1.41-19.6602-3.14c-4.05,1.03-7.8899,2.68-11.8298,3.99c0.0798,0.33,0.23,0.99,0.2998,1.32
	c16.0901,6.5,30.0801,17.29,42.3401,29.41c-17.51,9.1201-36.05,16.8701-55.6599,19.96c-12.24,1.93-25.74,1.74-36.55-5.01
	c-8.4102-4.99-13.3201-14.17-15.55-23.42c-8.8101,1.62-17.1699,5.04-25.8301,7.26c-13.3999,3.79-26.8999,7.38-40.72,9.3
	c-0.05,2.78,0,5.57,0.1301,8.37c4.03,9.76,12.3398,16.93,20.99,22.58c23.0999,14.66,49.53,22.8,75.5898,30.41
	c6.02,2.18,12.52,0.85,18.72,2.19c12.3201,0.89,24.8901,0.72,36.9702-2.24c4.8799-1.12,9.6199-2.76,14.52-3.91
	c0.0999-10.97,3.7698-22.18,11.5398-30.13c10.8901-12.1,26.6702-18.4,42.23-21.92c28.05-6.22,57.27-3.16,84.8801,3.84
	c-11.1201,17.52-23.8501,34.07-38.5601,48.73c-11.52,10.98-24.29,21.22-39.3599,26.83c-11.05,4.14-23.6902,4.85-34.8101,0.59
	c-6.75-2.46-12.77-6.61-18.01-11.46c-12.0901,1.14-24.24,1-36.3701,1.04c0.2102,0.38,0.6201,1.12,0.8201,1.5
	c16.5601,14.41,26.75,34.77,33.1699,55.47c-21.72-0.29-43.9299-2.15-64.26-10.33c-10.2998-4.27-20.4299-10.93-25.3799-21.27
	c-4.26-8.55-3.7-18.54-1.48-27.5699c-7.4001-1.02-14.8101-1.89-22.1699-3.08c9.9199,20.61,11.5898,44.25,8.26,66.64
	c-1.79,13.34-5.3401,26.39-9.7202,39.0999c-15.51-10.8799-30.2-23.03-43.0698-36.96c-10.8601-12.06-20.9302-25.46-25.8601-41.11
	c-3.1399-9.93-3.6299-20.89,0.1001-30.72c2.99-8.2401,8.53-15.2401,14.76-21.3c-7.53-5.72-14.3801-12.39-19.6602-20.25
	c-4.4299-6.83-11.0798-11.89-18.3198-15.41c-9.4302-4.32-20.1301-4.34-30.24-3.36c-23.4102,3.07-46.49,8.17-69.6101,12.84
	c-15.3,3.45-30.75,6.36-45.73,11.04c-8.96,3.57-16.28,10.13-24.1699,15.52c-17.9402,13.24-35.8101,26.61-54.6001,38.63
	c-11.8401,7.48-23.8701,14.8-36.77,20.29c-10.8599,4.85-22.3401,8.98-34.3501,9.28c-39.3899,1.34-78.3198-6.33-117.5598-8.01
	c-8.71,0.21-17.3401-1.02-26.02-0.94c-8.04-0.09-16.0701-0.33-24.1001-0.25c-17.6199-1.15-35.3101-0.67-52.96-0.6
	c-9.6699,0.99-19.45,0.23-29.0601,1.75c-15.4199,1.78-31.05,7.16-42.3298,18.18c-5.8,5.57-8.8901,13.13-13.7002,19.46
	c-17.9199,25.0699-36.9299,49.38-57.3899,72.4299c-16.6499,18.2001-36.22,33.4401-56.3,47.64
	c-26.88,18.87-55.1699,35.63-83.88,51.53c-32.85,18.09-66.46,34.78-100.5699,50.36c11.59,9.71,25.96,15.28,40.14,20.0601
	c34.25,10.6499,70.0699,14.97,105.6799,18.0699c15.78,1.03,31.5701,2.2001,47.4,2.41c18.99,0.6799,38.02,1.28,57.01,0.34
	c8.76-0.2999,17.6001-0.23,26.1699-2.34c25.9602-5.6801,50.9402-15.02,75.7002-24.54c17.7898-7.2999,35.8298-13.99,53.6499-21.23
	c-9.8701-6.27-19-14.3-24.3301-24.89c-9.29-17.7-9.0698-38.87-4.02-57.8099c8.73-32.8301,29.3201-61.1001,52.8301-85.03
	c2.48-2.4401,4.77-5.15,7.74-7.03c6.1699,10.73,10.9099,22.23,15.53,33.7c9.8601,25.78,17.53,53.1201,16.26,80.9701
	c-0.55,7.39-1.72,14.7899-4.1401,21.8199c-1.4099,4.09-3.49,7.91-4.9399,11.99c18.73-9.21,36.24-20.71,53.77-32
	c-5.01-3.64-11.04-5.78-15.3799-10.33c-9.9502-8.52-15.6301-21.3101-16.5601-34.26c-1.51-14.99,2.1499-30.03,7.8401-43.8199
	c9.49-22.4,24.5298-42.0901,41.7998-59.0601c11.6602,21.2,21.26,43.76,26.24,67.51c3.2102,14.95,3.5801,30.6-0.27,45.47
	c3.4502-2.15,6.2202-5.16,9.2202-7.87c7.2998-6.35,14.1399-13.24,20.49-20.54c8.6399-9.09,16.5798-18.84,23.96-28.98
	c2.26-3.3199,5.25-6.35,6.1699-10.39c-8.27-10.1699-9.78-24.6699-5.8-36.9199c5.4001-17,17.8801-30.77,31.78-41.47
	c19.6799-15.14,42.8401-25.39,66.78-31.64c0.3-0.25,0.9099-0.74,1.22-0.98c-0.29,23.6-3.6599,47.26-10.74,69.81
	c-5.6899,16.9399-14.25,34.09-29.4199,44.41c-11.8401,8.15-27.1799,9.22-40.8501,5.9199c-5.4099,9.55-12.8499,17.66-19.3398,26.4401
	c9.8098-0.65,19.7998-1.13,29.49,0.97c19.99,3.9301,38.4199,13.7,54.5698,25.92c23.24,17.84,42.4402,40.62,57.76,65.51
	c-24.8298,6.7-50.3599,10.84-76.02,12.35c-23.21,0.8099-47.1699-0.13-68.9299-9.02c-13.96-5.65-26.5601-15.61-33.5601-29.13
	c-4.23-7.9399-6.3899-16.8-7.5-25.6801c-6.23,4.2001-11.8699,9.1801-17.9299,13.6001c-9.21,6.8999-18.5901,13.5699-28.04,20.1499
	c-0.02,0.38-0.0698,1.15-0.0999,1.54c10.96,2.24,20.3899,8.9401,28.3098,16.59c13.78,14.25,23.0901,32.39,28.6401,51.3201
	c-12.3201,0.28-24.6401-0.74-36.8-2.66c-12.6001-2.22-25.3101-5.4199-36.3999-12.01c-7.74-4.72-14.8401-11.48-17.7002-20.2999
	c-1.1299-3.3101-1.5798-6.79-1.9299-10.24c-8.27,3.8999-15.6199,9.46-23.5898,13.9199c-38.5,23.24-78.0601,44.7001-118.1401,65.0701
	c-11.74,5.9199-23.5,11.7799-35.4399,17.2899c0.1499,0.49,0.4399,1.4701,0.5801,1.9501c24.1399,21.5599,52.0999,39.39,83.0298,49.36
	c-1.5298-7-2.77-14.25-1.51-21.38c2.1602-15.85,12.3101-29.58,24.9502-38.91c20.1399-15.02,45.1899-21.83,69.8599-24.52
	c11.4102-1.34,22.9102-1.2799,34.3801-1.02c-6.6301,18.1001-14.9001,35.64-25.04,52.05c-8.71,13.79-18.8,27.05-31.8401,37.04
	c-3.6799,2.86-7.9399,4.9-11.4399,7.99c7.3101,0.65,14.6799,1.12,22,0.22c22.8799-0.4399,45.47-5.15,67.3101-11.75
	c1.3-10.62,4.74-21.4299,12.51-29.13c11.8298-13.1799,29.1699-19.67,46.1699-22.98c31.3-5.79,63.52-0.9301,93.6799,8.24
	c-10.0598,13.92-20.6899,27.51-33.01,39.51c-12.78,13.23-27.1699,25.1899-43.72,33.38c-11.0798,5.15-23.48,8.83-35.78,7.02
	c-15.03-1.89-28.3999-11.16-37.3398-23.1c-12.7002,2.8899-25.1602,7.0099-38.0901,8.86c0.3601,0.6599,0.76,1.3199,1.1899,2.01
	c12.3401,8.25,21.52,20.35,29.3201,32.7999c7.78,12.9601,13.96,27,17.73,41.66c-23.8401-0.67-48.03-2.62-70.6799-10.59
	c-8.4001-3.0601-16.5801-6.9301-23.6101-12.5c-9.2-6.87-15.4199-17.75-16.1499-29.26c-0.6101-6.9401,1.25-13.7001,2.6199-20.42
	c-18.24-1.35-36.45-3.75-54.1699-8.34c8.46,24.02,4.51,50.41-3.76,73.91c-13.8301-9.66-26.6099-20.88-37.51-33.75
	c-8.5801-10.6201-16.2-23.2101-16.3201-37.26c-0.0999-7.3,3-14.04,6.6401-20.17c-21.8301-9.35-42.6301-21.04-62.21-34.45
	c-9.26-6.5801-18.6902-13.0701-26.8-21.0601c-15.96,1.74-31.96,3.4401-48.03,3.13c-37.91,0.64-75.71-3.83-113.01-10.26
	c-35.1899-6.22-69.97-14.62-104.25-24.6899c-12.53-3.9601-25.36-7.2001-37.48-12.3301c-4.12-0.08-7.45,2.5701-11.11,4.02
	c-17.47,7.33-35.88,12.0601-54.15,16.89c-42.97,10.74-86.47,19.13-130.01,27.15c-42.6,7.6899-85.3099,14.71-128.1,21.1699
	c-25.23,3.6101-50.46,7.99-76.01,8.13c-12.92,1.1801-25.92,0.41-38.88,0.63c-11.02,0.36-21.98-1.0299-33-0.83
	c-38.01-1.49-75.96-4.36-113.84-7.9301c4.62,5.77,10.3199,10.5701,15.35,15.9801c5.9,5.6599,11.01,12.0699,16.8099,17.84
	c7.05-8.09,18.04-11.8,28.6101-10.77c18.6599,1.76,35.25,12.29,48.6599,24.83c0.75,0.92,3.5701,2.78,1.26,3.65
	c-15.28,7.66-31.78,13.6801-48.96,14.74c3.03,3.0901,5.74,6.47,8.64,9.6801c0.09,0.47,0.27,1.4199,0.35,1.89
	c9.2,0.09,18.55,2.24,26.15,7.63c13.7,9.75,23.14,24.38,29.1599,39.89c5.38,13.96,8.8201,28.75,9.5801,43.71
	c-19.4401-4.12-38.86-9.41-56.51-18.74c-7.39-3.9301-14.5601-8.53-20.36-14.61c-5.91-5.7201-10.52-13.11-11.76-21.3301
	c-1.9401-10.13,1.6899-20.33,6.51-29.13c0.7999-0.59,1.62-1.1699,2.45-1.73c-0.16-0.61-0.48-1.83-0.64-2.4399
	c-5.51-5.6001-10.1899-11.9501-15.5299-17.7001c-7.4401-8.6-15.2201-16.9099-22.9601-25.23c-0.28-0.12-0.85-0.37-1.14-0.49
	c-0.89,16.65-10.4099,31.35-21.39,43.3c-3.4099,3.84-7.3199,7.1899-11.2599,10.47c-5.29-12.39-9.6801-25.29-11.42-38.7001
	c-0.98-9.4099-0.9301-19.46,3.53-28.0599c2.86-5.61,7.8999-9.86,13.6699-12.26c-0.08-0.6-0.23-1.78-0.3099-2.37
	c-18.66-17.5-38.26-34.1-59.51-48.4c-9.9401-6.08-19.3201-13.0599-29.76-18.2999c-36.9-18.9801-77.24-29.89-117.37-39.6801
	c-24.28-5.5-48.72-10.35-73.27-14.47c-1.65-0.22-3.3-0.1901-4.93-0.14c2.84,2.64,6.12,4.72,9.31,6.92
	c-16.77,11.7799-35.6,22.5699-56.51,23.7999c13.84,16.59,27.93,32.97,41.43,49.84c5.84-2.8899,12.67-1.85,18.71-0.1899
	c11.96,3.41,20.65,14.01,24.63,25.4399c5.88,16.9601,5.12,35.53,1.33,52.8601c-2.45,11.0099-6.02,21.7899-10.79,32.0199
	c-0.51,1.3401-1.78-0.2699-2.39-0.62c-15.59-13.4099-30.47-28.1899-41.01-46c-7.57-12.5499-12.42-28.0299-7.58-42.47
	c2.21-5.23,5.29-10.09,9.55-13.9c-0.01-0.3199-0.05-0.96-0.07-1.2899c-5.94-6.37-11.08-13.5-17.51-19.4
	c0.15,17.14-9.4,32.53-20.5,44.88c-3.69,4.1899-7.8799,7.9-12.15,11.49c-4.8-11.21-8.91-22.8101-10.87-34.87
	c-1.6-10.12-2.01-21,2.27-30.53c3.14-7.11,9.61-12.37,17-14.5699c-0.03-0.36-0.1-1.1001-0.14-1.4701
	c-13.34-12.0199-27.14-23.5499-41.82-33.9099c-14.97-10.2201-30.27-20.36-47.35-26.7101c-3.68-1.39-7.38-2.7-11.08-4.0199
	c-40.41-12.7001-83.11-16.2201-125.28-15.5901c-51.93-0.08-103.63,6.5601-154.73,15.48c-46.28,8.37-92.11,19.24-137.17,32.74
	c-29.88,9.25-59.86,18.9-87.89,32.9701c-6.31,3.2899-12.49,7.21-17.01,12.7999c-6.5,7.65-10.49,17.03-13.42,26.54
	c-6.24,23.48-6.28,48.15-3.73,72.16c2.47,23.62,7.4,47.0599,15.43,69.4399c13.07,40.12,26.36,80.16,39.47,120.27
	c34.3152,104.9869,66.6925,210.6503,99.9163,315.9875c16.698,52.9415,33.3853,105.8864,50.0752,158.8306
	c8.345,26.4722,16.6906,52.9442,25.0385,79.4156c1.9556,6.2014,4.8212,12.6851,6.0154,19.0696
	c1.6012,8.5608-2.5628,6.7754-10.5856,7.3821c-13.7523,1.04-27.5097,2.0024-41.2754,2.8472
	c-77.1899,4.7354-154.4849,4.6133-231.6693,5.9939c-12.236,0.219-23.3408-1.749-27.5352-14.6404
	c-1.6749-5.1479-1.7565-10.6584-1.8227-16.0715c-0.288-26.4956,1.3976-53.957-0.9766-80.3356
	c-2.3033-25.5895,1.9615-51.3199,1.3793-77.099c0.4717-26.2355-0.6829-52.1125,0.0678-78.4271
	c3.1215-109.4221,0.8247-219.108-3.0332-328.5269c-1.2148-34.4541-0.9307-69.1097-6.6506-103.1952
	c-3.5725-21.2888-7.9426-42.4438-13.0991-63.4054c-4.906-19.9432-4.0551-37.9905-2.7665-58.6022
	c2.3611-37.7677,7.7397-75.3507,18.2883-111.7471c7.1622-24.712,31.7929-37.6398,51.6133-52.2861
	c-5.36-34.9501-12.01-69.7101-17.64-104.6201c-0.34,0.04-1.01,0.13-1.35,0.17c0.07,2.64-20.54-25.63-20.95-61.42
	c-1.23-15.31-0.43-30.71-1.11-46.05c-0.53-6.09-0.93-12.27-0.36-18.37c2.43-9.76,5.17-19.46,6.96-29.37
	c0.99-4.67,1.29-9.47,2.57-14.08c1.39-9.22,1.49-18.52,1.75-27.81c1.23-6.06-0.37-12.12-0.2-18.21c0.02-12.7-0.78-25.39-2.37-37.98
	c-1.07-15.14-2.88-30.24-5-45.28c-3.73-1.85-7.52-3.63-10.97-5.97c0.1-9.98-1.19-19.88-1.16-29.85
	c6.15,4.1201,12.65,7.64,19.25,10.96c0.3-9.76,2.93-19.23,5.26-28.65c10.02-37.42,25.31-73.42,45.44-106.52
	c9.84-16.52,20.52-32.52,31.38-48.37c5.63-8.86,12.13-17.48,14.66-27.86c-10.62,2.3-22.16,1.47-31.81-3.77
	c-14.62-7.51-24.26-21.97-29.98-36.97c-5.71-15.21-8.31-31.56-8.02-47.79c0.02-7.24-0.17-14.53,1.03-21.7
	c23.88,9.92,47.49,21.99,66.26,40.09c6.75,6.27,11.54,14.16,16.27,21.96c2.59-12.04,5.79-23.94,8.86-35.86
	c-9.64,2.28-20-1.46-26.87-8.38c-9.25-8.42-14.67-20.16-18.16-31.98c-3.2-11.3-4.45-23.08-4.37-34.8
	c15.96,5.1,31.97,10.91,45.78,20.62c4.19,2.77,7.48,6.64,11.49,9.63c-0.07-1.58-0.15-3.14-0.23-4.71
	c-6.07-13.23-17.29-23.16-23.8-36.13c-4.74-8.46-8.82-17.26-12.87-26.06c-7.2-14.8-8.97-31.47-10.19-47.67
	c0.25-10.13-1.62-20.21-0.62-30.33c0.77-6.21,0.39-12.47,0.62-18.71c1.13-19.97,2.97-39.89,5.43-59.75
	c7.26,0.02,14.45,1.09,21.65,1.92c-2.56,5.63-3.7,11.73-4.8,17.78c-2.42,14.57-3.79,29.31-4.45,44.06
	c-1.05,9.27-0.77,18.63-0.73,27.94c2.48,23.24,14.28,44.63,29.99,61.59c6.09,6.08,11.86,12.73,19.37,17.11
	c1.03-7.81,3.86-15.19,6.36-22.6c15.31-41.27,34.7-80.86,54.11-120.31c1.23,10.67,2.95,21.34,3.83,32.03
	c-13.42,21.8-23.03,45.74-30.38,70.21c-2.76,9.72-5.66,19.41-7.71,29.32c18.61-10.15,40.73-10.15,61.07-6.34
	c-6.56,12.27-14.9,23.65-24.86,33.38c-8.46,7.95-19.21,15.38-31.39,14.42c-4.52,0.05-8.61-2.03-12.66-3.72
	c-5.39,31.92-9.08,64.15-10.65,96.47c4.22-4.97,7.31-10.76,11.15-16.01c29.25-41.64,62.48-80.32,97.06-117.58
	c25.65-29.27,47.88-61.31,69.18-93.82C535.21,173.9,563.98,124.2,591.08,73.64 M2864.9399,542.53
	c-7.4199,18.77-15.3,37.36-22.3398,56.28c-6.23,17.09-12.8701,34.09-17.7102,51.64c5.03-2.86,9.8601-6.16,15.3101-8.24
	c19.8101-8.06,41.8201-8.14,62.75-5.44c-6.8499,14.55-15.04,28.55-25.1399,41.09c-3.1301,4.02-7.21,7.25-9.8601,11.64
	c1.25-0.51,2.51-1.06,3.8-1.64c17.21-9.38,34.1599-19.26,51.6101-28.19c-4.0801-4.32-8.6602-8.38-11.1101-13.91
	c-5.26-10.15-4.5601-22.35-0.5801-32.81c6.1902-16.56,18.27-30.21,31.6802-41.4c0.3999-0.08,1.2-0.25,1.5898-0.34
	c0.49-1.07,1.04-2.12,1.6201-3.16c-14.51,3.98-30.24,5.55-44.8101,1.08c-14.53-4.33-26.6299-14.71-34.8799-27.22
	C2866.3899,542.06,2865.4199,542.37,2864.9399,542.53 M593.6,604.4c-8.18,3.53-17.44,5.2-26.21,3.03c0.52,8.8,0.77,17.91-2.48,26.27
	c-3.44,10.31-12.17,17.95-21.8799,22.29c-1.79,4.76-4.23,9.23-6.32,13.86c15.42-4.95,32.02-3.98,47.57-0.14
	c-6.41,11-14.73,20.87-24.26,29.3c-7.3,6.06-16.23,11.51-26.1,10.76c-5.53,0.21-10.41-2.75-14.93-5.56
	c-10.07,20.35-20.85,40.35-31.34,60.49c-2.73,5.42-6.04,10.56-8.13,16.29c13.62-5.64,26.87-12.15,40.3-18.22
	c-0.29,3.88-0.3,7.87-1.61,11.59c-1.77,2.89-4.31,5.2-6.51,7.75c17.32,3.9,33.24,12.43,47.43,22.94c-5.9,4.2-12.04,8.04-18.35,11.57
	c-13.95,7.59-28.87,14.2-44.84,15.76c-9.46,0.82-19.73-0.93-27.13-7.24c-3.12-2.54-5.35-5.92-7.98-8.9
	c-7.15,3.14-13.6,7.72-20.59,11.22c-19.13,10.47-38.42,20.65-57.92,30.42c-0.05,0.31-0.14,0.94-0.19,1.25
	c11.22,1.12,20.86,8.42,27.25,17.38c9.26,12.94,14.05,28.72,15.54,44.44c-16.35-2.64-32.68-7.39-46.89-16.1
	c-7.81-5.13-15.37-12.35-16.92-21.99c-1.18-4.78,0.26-9.61,1-14.33c-5.41,1.9399-10.44,4.77-15.62,7.23
	c-10.9,5.51-21.96,10.67-32.95,15.99c-3.3,1.66-7.05,2.81-9.43,5.81c30.56,11.94,54.31,36.29,72.64,62.83
	c-17.13,5.39-34.82,9-52.66,11.03c-18.94,2-38.59,2.21-56.86-3.82c-6.19-1.92-11.72-5.33-17.22-8.65
	c-2.34,6.97-4.95,13.86-7.78,20.65c10-3.64,20.93-3.92,31.3-1.85c18,3.49,34.59,12.27,49.13,23.25
	c-11.94,8.44-24.76,15.72-38.38,21.07c-11.8,4.41-24.68,7.9901-37.32,5.59c-7.37-1.1-13.78-5.34-18.96-10.51
	c-3.72,10.7899-7.92,21.4199-11.95,32.11c-0.84,1.86-0.6,3.9399-0.16,5.89c3.89,16.87,7.43,33.8199,11.16,50.72
	c1.85,9.47,4.51,18.79,5.86,28.35c16.66-12.95,35.03-23.4199,53.29-33.9c37.29-21,75.18-40.99,113.99-59.0599
	c7.66-3.9401,14.59-9.12,21.45-14.3c20.27-15.6299,38.66-33.48,57.26-51.0099c15.44-15.57,31.27-30.79,46.14-46.91
	c18.72-18.02,33.91-39.28,48.01-61c15.66-24.49,30.13-49.77,43.12-75.77c-10.6-20.85-15.84-44.04-17.67-67.25
	c-1.89-20.9-1.27-41.98,0.53-62.85c1.68-9.06-1.25-18.07-0.53-27.15c0.55-8.47,2.56-16.86,6.31-24.49
	c2.51-4.89,2.88-10.45,3.94-15.75C603.82,598.16,599.17,602.1,593.6,604.4 M2812.6001,695.63c-1.98,8.95-3.4302,18.09-3.1301,27.29
	c11.1401-6.43,22.6501-12.28,33.4199-19.33c-5.5498,0.23-11.2798,0.8199-16.6399-0.94
	C2821.26,701.24,2816.8999,698.4,2812.6001,695.63 M213.9,938c-4.78,13.41-8.46,27.17-12.07,40.94c-0.63,2.35-0.5,4.82-0.04,7.2
	c2.05,10.77,4.25,21.51,6.26,32.29c3.55-5.21,5.91-11.09,8.87-16.62c8.55-16.92,16.99-33.88,25.55-50.79
	c-4.79-6.14-7.94-13.44-9.41-21.07C226.37,931.89,220.41,935.61,213.9,938 M512.41,1020.6
	c-50.22,34.4501-100.33,69.09-151.12,102.7001c-15.08,12.3099-30.32,26.08-37.56,44.6399c-0.12,1-0.36,2.9801-0.48,3.9701
	c44.86-7.73,89.81-14.9,134.79-21.9c44.39-6.99,88.85-13.63,133.06-21.7c12.05-2.4601,24.3-4.4,35.9301-8.42
	c0.08-0.42,0.22-1.27,0.29-1.6901c-12.84-2.95-24.54-10.72-31.57-21.9399c-12.97-19.8-14.04-44.76-11.09-67.5701
	c-20.95-3.6499-41.77-8.0399-62.64-12.15C518.13,1015.25,515.39,1018.79,512.41,1020.6 M656.01,1042.0601
	c7.3,13.9099,12.46,30.12,8.45,45.83c0.38-0.14,1.14-0.4301,1.52-0.5701c7.58-9.34,15.12-18.71,22.02-28.5699
	c2.11-3.14,5-5.97,5.77-9.8C681.35,1045.89,668.6,1044.3,656.01,1042.0601 M709.03,1051.45c-1.86,5.28-4.9901,9.9501-7.3701,14.99
	c6.02-1.1899,12.2401-1.4399,18.32-0.5299c15.95,2.27,30.67,9.7999,43.61,19.14c-11.45,8.33-23.9,15.49-37.34,20.09
	c-9.65,3.27-20.46,5.1899-30.35,1.8199c-6.23-2.08-10.96-6.95-14.4901-12.2999c-8.73,9.6699-16.6299,20.1-25.78,29.4099
	c-0.22,0.78-0.42,1.5701-0.61,2.39c11.62-1.62,23.37-0.9099,35.03-0.09c35.85,2.64,71.17,9.74,106.86,13.85
	c9.32,0.63,19.19,2.8101,28.11-1.0599c2.36-7.5801,7.38-13.8401,11.98-20.16c12.11-15.87,25.55-30.66,38.8-45.5601
	c-3.51-1.0599-7.19-0.96-10.8-1.25c-44.39-4.0499-88.59-10.23-132.56-17.5C724.59,1053.91,716.91,1051.85,709.03,1051.45
	 M842.04,1187.21c1.79,1.5801,3.62,3.12,5.53,4.5901c3.29,2.8999,6.35,6.0499,9.45,9.1599c2.79-4.5399,6.88-7.98,10.95-11.3199
	C859.48,1187.76,850.72,1187.22,842.04,1187.21 M1143.11,1233.96c0.12,0.52,0.35,1.5701,0.47,2.0901
	c2.02,1.45,4.01,2.95,6.0901,4.34c-0.1901-2.42-0.36-4.8201-0.5801-7.22C1147.08,1233.39,1145.09,1233.65,1143.11,1233.96z"/>
</svg>
